<svg id="Layer_1" data-name="Layer 1" xmlns="http://www.w3.org/2000/svg"
  xmlns:xlink="http://www.w3.org/1999/xlink" viewBox="0 0 444.28 95.73">
  <defs>
    <style>
      .cls-1 {
      fill: url(#linear-gradient);
      }

      .cls-2 {
      fill: #002c9b;
      }
    </style>
    <linearGradient id="linear-gradient" x1="58.03" y1="-10.05" x2="58.03" y2="93.73"
      gradientUnits="userSpaceOnUse">
      <stop offset=".26" stop-color="#c8da2f" />
      <stop offset=".33" stop-color="#b9d43e" />
      <stop offset=".46" stop-color="#94c668" />
      <stop offset=".64" stop-color="#59aeaa" />
      <stop offset=".84" stop-color="#0f92fe" />
      <stop offset=".93" stop-color="#0f92fe" />
    </linearGradient>
  </defs>
  <g>
    <g>
      <path class="cls-2" d="M308.51,86.44v-9.03h2.14v6.97h4.18v2.06h-6.32Z" />
      <path class="cls-2"
        d="M317.55,86.44l3.19-9.03h3.05l3.2,9.03h-2.32l-2.26-6.77h-.27l-2.26,6.77h-2.32ZM319.96,84.69v-1.86h4.58v1.86h-4.58Z" />
      <path class="cls-2"
        d="M333.96,86.59c-.78,0-1.47-.16-2.06-.48-.59-.32-1.05-.78-1.37-1.38-.32-.6-.48-1.3-.48-2.1v-5.21h2.14v5.21c0,.37.08.7.24.98.16.28.38.51.65.66s.57.24.89.24.62-.08.9-.24c.27-.16.48-.38.64-.66.16-.28.23-.61.23-.98v-5.21h2.14v5.21c0,.8-.16,1.5-.48,2.1-.32.6-.78,1.06-1.37,1.38-.59.32-1.28.48-2.06.48Z" />
      <path class="cls-2"
        d="M342.16,86.44v-9.03h3.47c.83,0,1.6.2,2.28.59s1.23.93,1.64,1.62.61,1.46.61,2.31-.2,1.62-.61,2.31-.95,1.23-1.64,1.62-1.45.59-2.28.59h-3.47ZM345.63,84.39c.45,0,.85-.11,1.21-.32.36-.21.64-.5.85-.87.21-.37.31-.79.31-1.28s-.1-.91-.31-1.28c-.21-.37-.49-.66-.85-.87-.36-.21-.77-.32-1.21-.32h-1.33v4.93h1.33Z" />
      <path class="cls-2"
        d="M358.25,86.59c-.83,0-1.58-.2-2.27-.6s-1.23-.95-1.63-1.66c-.4-.71-.6-1.5-.6-2.4s.2-1.69.6-2.4c.4-.71.94-1.26,1.63-1.66.69-.4,1.44-.6,2.27-.6s1.61.2,2.3.6c.69.4,1.24.95,1.64,1.66.4.71.6,1.51.6,2.4s-.2,1.69-.6,2.4c-.4.71-.95,1.26-1.64,1.66s-1.46.6-2.3.6ZM358.25,84.53c.45,0,.85-.11,1.22-.33.37-.22.66-.52.87-.92.22-.39.32-.85.32-1.36s-.11-.97-.32-1.36c-.21-.39-.51-.7-.87-.92-.37-.22-.77-.33-1.22-.33s-.83.11-1.19.33c-.37.22-.65.52-.86.92s-.32.85-.32,1.36.11.97.32,1.36.5.7.86.92c.37.22.76.33,1.19.33Z" />
      <path class="cls-2"
        d="M370.15,86.59c-.8,0-1.49-.14-2.07-.41s-1.03-.64-1.34-1.11c-.31-.47-.46-1-.46-1.61h2.14c0,.24.06.45.19.64.13.18.33.33.59.44.26.11.58.17.95.17.54,0,.95-.08,1.21-.25.27-.16.4-.39.4-.68,0-.23-.1-.42-.3-.57s-.54-.26-1.01-.34l-1.48-.27c-.56-.1-1.02-.26-1.39-.47-.37-.21-.64-.49-.83-.83-.19-.34-.28-.76-.28-1.24,0-.53.14-1.01.43-1.42s.69-.74,1.22-.99c.52-.25,1.15-.37,1.88-.37.8,0,1.49.14,2.07.41.58.27,1.01.64,1.3,1.1s.43,1,.43,1.61h-2.13c0-.23-.06-.45-.19-.64s-.32-.34-.57-.45c-.25-.11-.56-.16-.92-.16-.45,0-.79.09-1.03.26s-.36.4-.36.67c0,.22.08.39.25.51.17.12.46.22.88.3l1.47.26c.63.11,1.14.28,1.53.49.39.22.68.5.86.85.19.35.28.78.28,1.29,0,.54-.14,1.02-.43,1.44s-.71.76-1.26,1c-.56.25-1.24.37-2.05.37Z" />
      <path class="cls-2"
        d="M388.12,86.59c-.83,0-1.58-.2-2.27-.6s-1.23-.95-1.63-1.66c-.4-.71-.6-1.5-.6-2.4s.2-1.69.6-2.4c.4-.71.94-1.26,1.63-1.66.69-.4,1.44-.6,2.27-.6s1.61.2,2.3.6c.69.4,1.24.95,1.64,1.66.4.71.6,1.51.6,2.4s-.2,1.69-.6,2.4c-.4.71-.95,1.26-1.64,1.66s-1.46.6-2.3.6ZM388.12,84.53c.45,0,.85-.11,1.22-.33.37-.22.66-.52.87-.92.22-.39.32-.85.32-1.36s-.11-.97-.32-1.36c-.21-.39-.51-.7-.87-.92-.37-.22-.77-.33-1.22-.33s-.83.11-1.19.33c-.37.22-.65.52-.86.92s-.32.85-.32,1.36.11.97.32,1.36.5.7.86.92c.37.22.76.33,1.19.33Z" />
      <path class="cls-2"
        d="M396.65,86.44v-9.03h2.58l2.93,5.37h.27v-5.37h2.13v9.03h-2.58l-2.9-5.37h-.28v5.37h-2.14Z" />
      <path class="cls-2" d="M408.92,86.44v-9.03h2.14v6.97h4.18v2.06h-6.32Z" />
      <path class="cls-2" d="M418.92,86.44v-9.03h2.14v9.03h-2.14Z" />
      <path class="cls-2"
        d="M425.43,86.44v-9.03h2.58l2.93,5.37h.27v-5.37h2.13v9.03h-2.58l-2.9-5.37h-.28v5.37h-2.14Z" />
      <path class="cls-2"
        d="M437.7,86.44v-9.03h6.43v1.91h-4.28v1.66h4v1.86h-4v1.69h4.28v1.91h-6.43Z" />
    </g>
    <path class="cls-2"
      d="M108.69,68.29v-8.54h11.99c1.1,0,1.94-.3,2.51-.9s.86-1.45.86-2.55V18.05h8.9v40.49c0,3.06-.86,5.46-2.58,7.18-1.72,1.72-4.19,2.58-7.39,2.58h-14.29Z" />
    <path class="cls-2"
      d="M157.58,69.01c-2.87,0-5.44-.62-7.72-1.87-2.27-1.24-4.03-3.06-5.28-5.46-1.25-2.39-1.87-5.14-1.87-8.25v-21.39h8.26v20.46c0,1.63.37,3.11,1.11,4.45.74,1.34,1.76,2.38,3.05,3.12,1.29.74,2.7,1.11,4.23,1.11,1.72,0,3.25-.38,4.6-1.15,1.34-.77,2.39-1.82,3.16-3.16.77-1.34,1.15-2.8,1.15-4.38v-20.46h8.33v36.25h-7.18l-.79-3.59h-.36c-.96,1.2-2.41,2.22-4.34,3.05-1.94.84-4.06,1.26-6.35,1.26Z" />
    <path class="cls-2"
      d="M199.28,69.01c-3.54,0-6.51-.57-8.9-1.72-2.39-1.15-4.18-2.62-5.35-4.41-1.17-1.79-1.76-3.63-1.76-5.49h8.25c0,.86.3,1.66.9,2.41.6.74,1.47,1.34,2.62,1.79,1.15.46,2.56.68,4.23.68,2.49,0,4.33-.39,5.53-1.18,1.2-.79,1.79-1.78,1.79-2.98s-.41-2.06-1.22-2.73c-.81-.67-2.15-1.17-4.02-1.51l-5.89-.93c-3.83-.62-6.74-1.81-8.72-3.55-1.99-1.75-2.98-4.1-2.98-7.07,0-2.06.57-3.92,1.72-5.6,1.15-1.68,2.86-2.99,5.13-3.95,2.27-.96,5.01-1.44,8.22-1.44s5.98.54,8.33,1.61c2.34,1.08,4.13,2.51,5.35,4.31,1.22,1.79,1.83,3.65,1.83,5.56h-8.11c0-.86-.3-1.65-.9-2.37-.6-.72-1.46-1.29-2.58-1.72-1.12-.43-2.43-.65-3.91-.65-2.15,0-3.83.41-5.03,1.22-1.2.81-1.79,1.79-1.79,2.94,0,1,.41,1.82,1.22,2.44.81.62,2.1,1.1,3.88,1.43l6.03.93c3.92.62,6.85,1.85,8.79,3.7,1.94,1.84,2.91,4.27,2.91,7.28,0,2.06-.58,3.91-1.72,5.56s-2.9,2.97-5.24,3.95c-2.34.98-5.22,1.47-8.61,1.47Z" />
    <path class="cls-2"
      d="M221.97,80.88v-48.83h7.25l.72,4.24h.36c1.2-1.53,2.76-2.74,4.7-3.63,1.94-.89,4.13-1.33,6.57-1.33,3.11,0,5.98.79,8.61,2.37,2.63,1.58,4.73,3.8,6.28,6.68,1.55,2.87,2.33,6.13,2.33,9.76s-.78,6.95-2.33,9.8c-1.56,2.85-3.65,5.07-6.28,6.68-2.63,1.6-5.5,2.4-8.61,2.4-2.39,0-4.52-.43-6.39-1.29-1.87-.86-3.37-2.01-4.52-3.45h-.36v16.6h-8.33ZM240.35,61.4c1.82,0,3.49-.48,5.03-1.44,1.53-.96,2.75-2.27,3.66-3.95.91-1.68,1.36-3.64,1.36-5.89s-.46-4.14-1.36-5.81c-.91-1.67-2.13-2.99-3.66-3.95-1.53-.96-3.21-1.44-5.03-1.44s-3.49.48-5.03,1.44c-1.53.96-2.75,2.27-3.66,3.95-.91,1.68-1.36,3.61-1.36,5.81s.46,4.21,1.36,5.89c.91,1.68,2.13,2.99,3.66,3.95,1.53.96,3.21,1.44,5.03,1.44Z" />
    <path class="cls-2"
      d="M282.91,69.01c-3.49,0-6.65-.81-9.47-2.44-2.82-1.63-5.06-3.88-6.71-6.75s-2.48-6.1-2.48-9.69.83-6.82,2.48-9.69c1.65-2.87,3.9-5.11,6.75-6.71,2.85-1.6,6.04-2.41,9.58-2.41,3.35,0,6.4.78,9.15,2.33,2.75,1.56,4.92,3.69,6.5,6.39,1.58,2.71,2.37,5.78,2.37,9.23,0,.81-.04,1.57-.11,2.26-.07.7-.16,1.19-.25,1.47h-28.21c.24,1.77.85,3.34,1.83,4.7.98,1.36,2.21,2.42,3.7,3.16,1.48.74,3.11,1.11,4.88,1.11,2.01,0,3.73-.4,5.17-1.19,1.44-.79,2.56-1.78,3.37-2.98h8.54c-.72,1.92-1.81,3.72-3.27,5.42s-3.36,3.09-5.71,4.16c-2.34,1.08-5.05,1.61-8.11,1.61ZM292.89,47.12c-.14-1.63-.68-3.11-1.62-4.45s-2.11-2.41-3.52-3.19c-1.41-.79-2.98-1.19-4.7-1.19-1.91,0-3.61.38-5.1,1.15-1.48.77-2.68,1.83-3.59,3.19-.91,1.36-1.53,2.86-1.87,4.49h20.39Z" />
    <path class="cls-2"
      d="M308.54,68.29v-36.25h7.25l.72,3.23h.36c.67-1.01,1.55-1.79,2.66-2.37,1.1-.58,2.46-.86,4.09-.86h6.82v7.82h-6.24c-2.34,0-4.15.61-5.42,1.83-1.27,1.22-1.9,3.03-1.9,5.42v21.18h-8.33Z" />
    <rect class="cls-2" x="336.18" y="32.04" width="8.33" height="36.25" />
    <path class="cls-2"
      d="M370.7,69.01c-3.49,0-6.66-.81-9.51-2.44-2.85-1.63-5.1-3.86-6.75-6.71-1.65-2.85-2.48-6.09-2.48-9.73s.83-6.82,2.48-9.69c1.65-2.87,3.9-5.11,6.75-6.71,2.85-1.6,6.02-2.41,9.51-2.41,3.16,0,5.96.61,8.4,1.83,2.44,1.22,4.43,2.86,5.96,4.92,1.53,2.06,2.59,4.35,3.16,6.89h-8.4c-.62-1.87-1.7-3.34-3.23-4.41-1.53-1.08-3.49-1.61-5.89-1.61-1.87,0-3.59.47-5.17,1.4-1.58.93-2.85,2.25-3.8,3.95-.96,1.7-1.44,3.65-1.44,5.85s.48,4.22,1.44,5.92c.96,1.7,2.22,3.02,3.8,3.95,1.58.93,3.3,1.4,5.17,1.4,2.39,0,4.35-.56,5.89-1.69,1.53-1.12,2.61-2.67,3.23-4.63h8.4c-.57,2.63-1.63,5-3.16,7.11-1.53,2.11-3.52,3.77-5.96,4.99-2.44,1.22-5.24,1.83-8.4,1.83Z" />
    <rect class="cls-2" x="395.4" y="32.04" width="8.33" height="36.25" />
    <path class="cls-2"
      d="M424.9,69.01c-2.73,0-5.1-.49-7.11-1.47s-3.57-2.32-4.67-4.02c-1.1-1.7-1.65-3.6-1.65-5.71,0-2.34.54-4.4,1.61-6.17,1.08-1.77,2.72-3.15,4.92-4.13,2.2-.98,4.93-1.47,8.18-1.47h9.76v-.93c0-2.06-.67-3.72-2.01-4.99-1.34-1.27-3.11-1.9-5.31-1.9-1.44,0-2.69.22-3.77.65-1.08.43-1.91.98-2.51,1.65s-.99,1.44-1.18,2.3h-8.25c.19-2.01.92-3.89,2.19-5.63,1.27-1.75,3.05-3.16,5.35-4.24,2.3-1.08,5.03-1.61,8.18-1.61s5.86.56,8.25,1.69c2.39,1.12,4.22,2.74,5.49,4.84s1.9,4.55,1.9,7.32v23.11h-7.18l-.79-3.8h-.36c-.91,1.2-2.33,2.25-4.27,3.16s-4.2,1.36-6.78,1.36ZM426.26,62.27c1.96,0,3.68-.38,5.17-1.15,1.48-.77,2.61-1.81,3.37-3.12.77-1.32,1.15-2.88,1.15-4.7v-1.08h-8.97c-2.39,0-4.17.46-5.35,1.36-1.17.91-1.76,2.15-1.76,3.73,0,1.44.54,2.62,1.62,3.55,1.08.93,2.67,1.4,4.77,1.4Z" />
    <rect class="cls-2" x="395.28" y="18.05" width="8.56" height="8.56" />
    <polygon class="cls-2" points="343.39 26.61 337.28 26.61 340.96 15.94 349.52 15.94 343.39 26.61" />
  </g>
  <g>
    <path class="cls-1"
      d="M64.71,0l-25.74,14.85c-.48.28-.78.8-.78,1.35v70.27c0,3.52-1.88,6.38-4.52,7.96l43.74-25.23c3.08-1.78,4.99-5.07,4.99-8.63V13.68L64.71,0Z" />
    <path class="cls-2"
      d="M.49,79.1c-.66.38-.66,1.32,0,1.7l23.78,13.72c4.83,2.78,9.4-.08,9.4-.09,2.64-1.58,4.51-4.44,4.51-7.95v-29.12L.49,79.1Z" />
    <path class="cls-2"
      d="M71.69,19.63l10.69-5.96L64.72,0h0s0,15.62,0,15.62c0,3.58,3.88,5.82,6.98,4.01Z" />
  </g>
</svg>