<svg id="Layer_1" data-name="Layer 1" xmlns="http://www.w3.org/2000/svg"
  xmlns:xlink="http://www.w3.org/1999/xlink" viewBox="0 0 444.28 95.73">
  <defs>
    <style>
      .cls-1 {
      fill: url(#linear-gradient);
      }

      .cls-2 {
      fill: #002c9b;
      }
    </style>
    <linearGradient id="linear-gradient" x1="58.03" y1="-10.05" x2="58.03" y2="93.73"
      gradientUnits="userSpaceOnUse">
      <stop offset=".26" stop-color="#c8da2f" />
      <stop offset=".33" stop-color="#b9d43e" />
      <stop offset=".46" stop-color="#94c668" />
      <stop offset=".64" stop-color="#59aeaa" />
      <stop offset=".84" stop-color="#0f92fe" />
      <stop offset=".93" stop-color="#0f92fe" />
    </linearGradient>
  </defs>
  <g>
    <path class="cls-1"
      d="M64.71,0l-25.74,14.85c-.48.28-.78.8-.78,1.35v70.27c0,3.52-1.88,6.38-4.52,7.96l43.74-25.23c3.08-1.78,4.99-5.07,4.99-8.63V13.68L64.71,0Z" />
    <path class="cls-2"
      d="M.49,79.1c-.66.38-.66,1.32,0,1.7l23.78,13.72c4.83,2.78,9.4-.08,9.4-.09,2.64-1.58,4.51-4.44,4.51-7.95v-29.12L.49,79.1Z" />
    <path class="cls-2"
      d="M71.69,19.63l10.69-5.96L64.72,0h0s0,15.62,0,15.62c0,3.58,3.88,5.82,6.98,4.01Z" />
  </g>
</svg>